<svg id="fccb381d-86de-4d3a-be3a-4347150d44cc" data-name="Layer 1" xmlns="http://www.w3.org/2000/svg" viewBox="0 0 38.69 10.99">
  <path d="M1.82,15a2.33,2.33,0,0,1-1-.76A2,2,0,0,1,.43,13H2.29a.89.89,0,0,0,.27.6.9.9,0,0,0,.62.21,1,1,0,0,0,.61-.18.64.64,0,0,0,0-.93,1.48,1.48,0,0,0-.43-.29c-.18-.07-.43-.16-.75-.25a8,8,0,0,1-1.13-.43,2,2,0,0,1-.75-.63A1.73,1.73,0,0,1,.45,10a1.87,1.87,0,0,1,.72-1.56,3,3,0,0,1,1.89-.57A3,3,0,0,1,5,8.46,2,2,0,0,1,5.75,10H3.86a.7.7,0,0,0-.26-.54.89.89,0,0,0-.6-.2.77.77,0,0,0-.51.17.59.59,0,0,0-.19.48.61.61,0,0,0,.32.54,5.31,5.31,0,0,0,1,.42,10.73,10.73,0,0,1,1.12.45,2.12,2.12,0,0,1,.75.62A1.71,1.71,0,0,1,5.84,13a2,2,0,0,1-.31,1.11,2.23,2.23,0,0,1-.91.8,3.16,3.16,0,0,1-1.39.29A3.66,3.66,0,0,1,1.82,15Z" transform="translate(-0.43 -6.98)" />
  <path d="M7,8.6a.88.88,0,0,1-.29-.67A.91.91,0,0,1,7,7.25,1,1,0,0,1,7.79,7a1,1,0,0,1,.74.27.91.91,0,0,1,.29.68.88.88,0,0,1-.29.67,1,1,0,0,1-.74.27A1,1,0,0,1,7,8.6Zm1.62.86v5.7H6.91V9.46Z" transform="translate(-0.43 -6.98)" />
  <path d="M13.15,9.63a1.71,1.71,0,0,1,.69.64V9.46h1.75v5.69a3.15,3.15,0,0,1-.31,1.42,2.4,2.4,0,0,1-.95,1,3.09,3.09,0,0,1-1.59.38,3.28,3.28,0,0,1-2.05-.6,2.3,2.3,0,0,1-.9-1.62h1.73a.83.83,0,0,0,.38.52,1.5,1.5,0,0,0,.76.19,1.21,1.21,0,0,0,.86-.31,1.32,1.32,0,0,0,.32-1v-.81a1.91,1.91,0,0,1-.7.65,2.09,2.09,0,0,1-1.05.25,2.36,2.36,0,0,1-1.28-.36,2.52,2.52,0,0,1-.9-1,3.47,3.47,0,0,1-.33-1.55,3.42,3.42,0,0,1,.33-1.54,2.49,2.49,0,0,1,.9-1,2.36,2.36,0,0,1,1.28-.36A2.16,2.16,0,0,1,13.15,9.63Zm.33,1.65a1.17,1.17,0,0,0-.88-.38,1.2,1.2,0,0,0-.88.37,1.4,1.4,0,0,0-.37,1,1.42,1.42,0,0,0,.37,1,1.21,1.21,0,0,0,1.76,0,1.42,1.42,0,0,0,.36-1A1.44,1.44,0,0,0,13.48,11.28Z" transform="translate(-0.43 -6.98)" />
  <path d="M21.93,10.05a2.57,2.57,0,0,1,.59,1.78v3.33H20.79V12.07a1.24,1.24,0,0,0-.3-.89,1.15,1.15,0,0,0-1.59,0,1.24,1.24,0,0,0-.3.89v3.09H16.86V9.46H18.6v.76a1.93,1.93,0,0,1,.72-.6,2.21,2.21,0,0,1,1-.22A2.08,2.08,0,0,1,21.93,10.05Z" transform="translate(-0.43 -6.98)" />
  <path d="M27.62,8v4.29a1.42,1.42,0,0,0,.31,1,1.42,1.42,0,0,0,1.87,0,1.38,1.38,0,0,0,.33-1V8h1.75v4.28a3,3,0,0,1-.41,1.62,2.58,2.58,0,0,1-1.1,1,3.64,3.64,0,0,1-3.05,0,2.49,2.49,0,0,1-1.06-1,3.2,3.2,0,0,1-.39-1.63V8Z" transform="translate(-0.43 -6.98)" />
  <path d="M35.55,9.63a2.09,2.09,0,0,1,1.05-.25,2.36,2.36,0,0,1,1.28.36,2.49,2.49,0,0,1,.9,1,3.42,3.42,0,0,1,.33,1.54,3.47,3.47,0,0,1-.33,1.55,2.52,2.52,0,0,1-.9,1,2.36,2.36,0,0,1-1.28.36,2.19,2.19,0,0,1-1-.24,1.92,1.92,0,0,1-.71-.64v3.52H33.1V9.46h1.75v.81A1.81,1.81,0,0,1,35.55,9.63ZM37,11.27a1.25,1.25,0,0,0-.9-.37,1.19,1.19,0,0,0-.88.38,1.44,1.44,0,0,0-.36,1,1.42,1.42,0,0,0,.36,1,1.22,1.22,0,0,0,1.77,0,1.42,1.42,0,0,0,.37-1A1.44,1.44,0,0,0,37,11.27Z" transform="translate(-0.43 -6.98)" />
</svg>