<svg id="f77c2736-db35-4cae-93b3-257d1bf1634d" data-name="Layer 1" xmlns="http://www.w3.org/2000/svg" xmlns:xlink="http://www.w3.org/1999/xlink" viewBox="0 0 107.02 105.56">
  <defs>
    <linearGradient id="b8bfd00b-fced-43ed-8608-db7407f06ab0" x1="21.48" y1="74.26" x2="128.7" y2="74.26" gradientUnits="userSpaceOnUse">
      <stop offset="0" stop-color="#002655" />
      <stop offset="0.15" stop-color="#022d5e" />
      <stop offset="0.41" stop-color="#064278" />
      <stop offset="0.57" stop-color="#0a518b" />
      <stop offset="0.87" stop-color="#0a518b" />
      <stop offset="0.99" stop-color="#0a518b" />
    </linearGradient>
    <linearGradient id="a57a2f20-7576-4e6f-8097-dbdc961e9822" x1="21.38" y1="75.76" x2="128.5" y2="75.76" xlink:href="#b8bfd00b-fced-43ed-8608-db7407f06ab0" />
  </defs>
  <path id="skills" d="M50.64,119.23a49.89,49.89,0,0,0,33,5.15,51,51,0,0,0,15.83-5.79,48.26,48.26,0,0,0,12.94-10.72,50.6,50.6,0,0,0,8.67-14.33,47.79,47.79,0,0,0,3.34-16.35,49.42,49.42,0,0,0-2.18-16.49A50.06,50.06,0,0,0,114.64,46a49,49,0,0,0-12-11.42,49.6,49.6,0,0,0-15.05-6.7,48.44,48.44,0,0,0-55.4,25,45.89,45.89,0,0,0-4.75,15.47c-.09.67-.22,1.34-.27,2l-.08,2c0,1.35-.16,2.7-.08,4a47.38,47.38,0,0,0,1,8,2.86,2.86,0,1,1-5.6,1.17l0,0a54.41,54.41,0,0,1-.94-9c0-1.51.09-3,.17-4.52l.14-2.25c.08-.75.22-1.49.33-2.24a51.29,51.29,0,0,1,5.61-17.06,53.52,53.52,0,0,1,25.92-23.9,52.94,52.94,0,0,1,51,5.16,52.18,52.18,0,0,1,12.53,12.41,53.15,53.15,0,0,1,7.75,15.77,52,52,0,0,1,2,17.41,49.91,49.91,0,0,1-3.81,17,52.88,52.88,0,0,1-9.29,14.73,50.14,50.14,0,0,1-13.57,10.81,52.09,52.09,0,0,1-16.36,5.63,50.74,50.74,0,0,1-33.43-5.84.25.25,0,0,1-.1-.35A.26.26,0,0,1,50.64,119.23Z" transform="translate(-21.48 -22.27)" fill="url(#b8bfd00b-fced-43ed-8608-db7407f06ab0)" />
  <path id="interests" d="M110,38.59A49.9,49.9,0,0,0,79.44,25.07a50.77,50.77,0,0,0-16.79,1.49,48.5,48.5,0,0,0-15.27,7A50.58,50.58,0,0,0,35.3,45.16a47.56,47.56,0,0,0-7.46,14.93,49.65,49.65,0,0,0-2.17,16.5,50.44,50.44,0,0,0,3.52,16.2,49.18,49.18,0,0,0,8.6,14.13,49.73,49.73,0,0,0,12.8,10.36,48.44,48.44,0,0,0,60-9.75,46.19,46.19,0,0,0,8.6-13.72c.26-.63.55-1.24.78-1.88l.6-1.94c.39-1.29.86-2.57,1.13-3.89a48.35,48.35,0,0,0,1.12-8,2.86,2.86,0,1,1,5.71.32v0a55.11,55.11,0,0,1-1.42,8.94c-.34,1.47-.87,2.89-1.33,4.32L125,93.84c-.27.71-.6,1.38-.9,2.08a51.27,51.27,0,0,1-9.83,15,53.59,53.59,0,0,1-31.22,16.37,52.95,52.95,0,0,1-47.9-18.17,52.16,52.16,0,0,1-8.89-15.23,53.27,53.27,0,0,1-3.4-17.24A52.18,52.18,0,0,1,25.5,59.35a49.78,49.78,0,0,1,8.1-15.47A52.63,52.63,0,0,1,46.38,32.06a50.28,50.28,0,0,1,15.91-6.93,51.93,51.93,0,0,1,17.25-1.21,50.74,50.74,0,0,1,30.79,14.3.25.25,0,0,1,0,.36A.25.25,0,0,1,110,38.59Z" transform="translate(-21.48 -22.27)" fill="url(#a57a2f20-7576-4e6f-8097-dbdc961e9822)" />
</svg>